<svg xmlns="http://www.w3.org/2000/svg" xmlns:xlink="http://www.w3.org/1999/xlink" width="40" height="40" viewBox="0 0 40 40"><defs><path id="alusa" d="M723.94 1298c11.078 0 20.06 8.954 20.06 20 0 11.045-8.982 20-20.06 20-11.08 0-20.06-8.955-20.06-20 0-11.046 8.98-20 20.06-20zm-16.049 20c0 3.861 1.372 7.403 3.657 10.168 1.774-2.93 6.067-8.56 13.816-10.727a80.203 80.203 0 0 0-1.552-3.126c-7.325 2.83-12.842 3.016-15.895 2.773-.017.302-.026.606-.026.912zm16.048 16c2.298 0 4.483-.482 6.46-1.35-.806-4.4-2.19-8.605-3.79-12.413-4.543 1.245-9.28 4.126-12.832 10.146a16.012 16.012 0 0 0 10.162 3.617zm-6.851-30.473c-4.326 2.04-7.591 5.95-8.744 10.684 4.078.04 9.508-.657 14.148-2.317a83.762 83.762 0 0 0-5.404-8.367zm19.137 4.178c-3.292 2.226-6.387 3.945-9.25 5.268a67.725 67.725 0 0 1 1.793 3.785c3.23-.405 6.953-.219 11.215.873a15.905 15.905 0 0 0-3.758-9.926zm-2.975 23.328c3.502-2.491 5.958-6.35 6.582-10.796-1.97-.489-5.685-1.158-9.9-.648 2.222 5.756 3.11 10.269 3.318 11.444zM723.94 1302c-1.313 0-2.59.157-3.81.453 2.17 2.64 4.002 5.394 5.543 8.108 4.187-1.972 6.909-4.076 8.163-5.158a16.01 16.01 0 0 0-9.897-3.403z"/></defs><g><g transform="translate(-704 -1298)"><use fill="#fff" xlink:href="#alusa"/></g></g></svg>