<svg xmlns="http://www.w3.org/2000/svg" xmlns:xlink="http://www.w3.org/1999/xlink" width="43" height="36" viewBox="0 0 43 36"><defs><path id="tb68a" d="M675.795 1304.666l-4.012 4v.667c0 .731-.118 1.43-.29 2.108-.093 5.502-1.85 12.8-9.072 18.559-14.204 11.329-29.421 1.333-29.421 1.333 12.036 0 12.036-4 12.036-4-2.675 0-8.024-5.333-8.024-5.333 1.337 1.333 4.012 0 4.012 0-6.687-4-6.687-8-6.687-8 1.337 1.333 4.012 0 4.012 0-6.687-5.334-2.675-12-2.675-12 1.338 6.666 18.723 9.333 18.723 9.333l.221-.11c-.136-.61-.22-1.906-.22-2.557 0-4.786 3.891-8 8.692-8 2.642 0 4.98 1.201 6.575 3.056l.78-.389 4.013-2.667-2.675 5.334z"/></defs><g><g transform="translate(-633 -1300)"><use fill="#fff" xlink:href="#tb68a"/></g></g></svg>